# xmcd CD database file
#
# Track frame offsets:
#	183
#	16350
#	31440
#	46190
#	59700
#	76300
#	89855
#	111088
#	130025
#	147428
#	161370
#	175463
#	194518
#	203983
#	220418
#	233595
#	249345
#	271503
#	288758
#	300558
#
# Disc length: 4217 seconds
#
# Revision: 8
# Processed by: cddbd v1.5.2PL0 Copyright (c) Steve Scherf et al.
# Submitted via: CDex 2.18
#
DISCID=1c107714
DTITLE=Neil Diamond - Gold
DYEAR=1993
DGENRE=Pop
TTITLE0=I Am ... I Said
TTITLE1=Sweet Caroline
TTITLE2=Song Sung Blue
TTITLE3=Cracklin' Rosie
TTITLE4=Brooklyn Roads
TTITLE5=Shilo
TTITLE6=Holly Holy
TTITLE7=He Ain't Heavy.. He's My Brother
TTITLE8=Play Me
TTITLE9=Stones
TTITLE10=Walk On Water
TTITLE11=Soolaimon
TTITLE12=Porcupine Pie
TTITLE13=And The Singer Sings His Song
TTITLE14=Girl, you'll Be A Woman Soon
TTITLE15=Brother Love's Traveling Salvation Show
TTITLE16=Cherry, Cherry
TTITLE17=Red, Red Wine
TTITLE18=Kentucky Woman
TTITLE19=Solitary Man
EXTD=YEAR: 1993
EXTT0=
EXTT1=
EXTT2=
EXTT3=
EXTT4=
EXTT5=
EXTT6=
EXTT7=
EXTT8=
EXTT9=
EXTT10=
EXTT11=
EXTT12=
EXTT13=
EXTT14=
EXTT15=
EXTT16=
EXTT17=
EXTT18=
EXTT19=
PLAYORDER=
